<mxfile host="app.diagrams.net" modified="2024-11-28T07:10:14.857Z" agent="Mozilla/5.0 (Windows NT 10.0; Win64; x64) AppleWebKit/537.36 (KHTML, like Gecko) Chrome/131.0.0.0 Safari/537.36" etag="tL8-JECONbeig8JBvZMr" version="24.0.7" type="device">
  <diagram name="Trang-1" id="6-jPcoZ7MqLZY3SkRck6">
    <mxGraphModel dx="885" dy="1633" grid="1" gridSize="10" guides="1" tooltips="1" connect="1" arrows="1" fold="1" page="1" pageScale="1" pageWidth="827" pageHeight="1169" math="0" shadow="0">
      <root>
        <mxCell id="0" />
        <mxCell id="1" parent="0" />
        <mxCell id="4L4OfkhO6QXv4VQEbrI_-3" value="" style="endArrow=classic;html=1;rounded=0;exitX=1;exitY=0.5;exitDx=0;exitDy=0;" edge="1" parent="1">
          <mxGeometry width="50" height="50" relative="1" as="geometry">
            <mxPoint x="190" y="440" as="sourcePoint" />
            <mxPoint x="340" y="440" as="targetPoint" />
          </mxGeometry>
        </mxCell>
        <mxCell id="4L4OfkhO6QXv4VQEbrI_-4" value="&lt;div&gt;segRun1&lt;/div&gt;mode = INIT&lt;div&gt;state = RED_GREEN_INIT&lt;/div&gt;" style="text;html=1;align=center;verticalAlign=middle;whiteSpace=wrap;rounded=0;" vertex="1" parent="1">
          <mxGeometry x="40" y="510" width="180" height="40" as="geometry" />
        </mxCell>
        <mxCell id="4L4OfkhO6QXv4VQEbrI_-5" value="isButtonPressed(0)" style="text;html=1;align=center;verticalAlign=middle;whiteSpace=wrap;rounded=0;" vertex="1" parent="1">
          <mxGeometry x="230" y="410" width="60" height="30" as="geometry" />
        </mxCell>
        <mxCell id="4L4OfkhO6QXv4VQEbrI_-6" value="button_flag[0] = 1" style="text;html=1;align=center;verticalAlign=middle;whiteSpace=wrap;rounded=0;" vertex="1" parent="1">
          <mxGeometry x="210" y="440" width="100" height="30" as="geometry" />
        </mxCell>
        <mxCell id="4L4OfkhO6QXv4VQEbrI_-7" value="&lt;font style=&quot;font-size: 21px;&quot;&gt;INIT&lt;/font&gt;" style="ellipse;whiteSpace=wrap;html=1;" vertex="1" parent="1">
          <mxGeometry x="70" y="400" width="120" height="80" as="geometry" />
        </mxCell>
        <mxCell id="4L4OfkhO6QXv4VQEbrI_-8" value="&lt;font style=&quot;font-size: 21px;&quot;&gt;MODE1&lt;/font&gt;" style="whiteSpace=wrap;html=1;aspect=fixed;" vertex="1" parent="1">
          <mxGeometry x="340" y="400" width="80" height="80" as="geometry" />
        </mxCell>
        <mxCell id="4L4OfkhO6QXv4VQEbrI_-10" value="" style="endArrow=classic;html=1;rounded=0;entryX=0.005;entryY=0.618;entryDx=0;entryDy=0;entryPerimeter=0;" edge="1" parent="1" target="4L4OfkhO6QXv4VQEbrI_-8">
          <mxGeometry width="50" height="50" relative="1" as="geometry">
            <mxPoint x="210" y="540" as="sourcePoint" />
            <mxPoint x="340" y="480" as="targetPoint" />
          </mxGeometry>
        </mxCell>
        <mxCell id="4L4OfkhO6QXv4VQEbrI_-12" value="&lt;font style=&quot;font-size: 15px;&quot;&gt;immediately&lt;/font&gt;" style="text;html=1;align=center;verticalAlign=middle;whiteSpace=wrap;rounded=0;rotation=326;direction=east;" vertex="1" parent="1">
          <mxGeometry x="220" y="500" width="90" height="30" as="geometry" />
        </mxCell>
        <mxCell id="4L4OfkhO6QXv4VQEbrI_-19" value="" style="curved=1;endArrow=classic;html=1;rounded=0;entryX=0;entryY=0;entryDx=0;entryDy=0;" edge="1" parent="1" target="4L4OfkhO6QXv4VQEbrI_-8">
          <mxGeometry width="50" height="50" relative="1" as="geometry">
            <mxPoint x="421" y="400" as="sourcePoint" />
            <mxPoint x="340" y="360" as="targetPoint" />
            <Array as="points">
              <mxPoint x="460" y="390" />
              <mxPoint x="470" y="350" />
              <mxPoint x="440" y="300" />
              <mxPoint x="360" y="300" />
              <mxPoint x="330" y="350" />
            </Array>
          </mxGeometry>
        </mxCell>
        <mxCell id="4L4OfkhO6QXv4VQEbrI_-21" value="&lt;font style=&quot;font-size: 10px;&quot;&gt;RED_YELLOW&amp;nbsp; &lt;/font&gt;&lt;font style=&quot;font-size: 15px;&quot;&gt;,&lt;/font&gt;&lt;font style=&quot;font-size: 10px;&quot;&gt; GREEN_RED&lt;/font&gt;" style="text;html=1;align=center;verticalAlign=middle;whiteSpace=wrap;rounded=0;" vertex="1" parent="1">
          <mxGeometry x="320" y="270" width="160" height="30" as="geometry" />
        </mxCell>
        <mxCell id="4L4OfkhO6QXv4VQEbrI_-24" value="" style="curved=1;endArrow=classic;html=1;rounded=0;" edge="1" parent="1">
          <mxGeometry width="50" height="50" relative="1" as="geometry">
            <mxPoint x="420" y="480" as="sourcePoint" />
            <mxPoint x="340" y="480" as="targetPoint" />
            <Array as="points">
              <mxPoint x="440" y="480" />
              <mxPoint x="450" y="530" />
              <mxPoint x="430" y="570" />
              <mxPoint x="320" y="570" />
            </Array>
          </mxGeometry>
        </mxCell>
        <mxCell id="4L4OfkhO6QXv4VQEbrI_-25" value="&lt;font style=&quot;font-size: 10px;&quot;&gt;YELLOW_RED &lt;/font&gt;&lt;font style=&quot;font-size: 15px;&quot;&gt;,&lt;/font&gt;&lt;font style=&quot;font-size: 10px;&quot;&gt; RED_GREEN&lt;/font&gt;" style="text;html=1;align=center;verticalAlign=middle;whiteSpace=wrap;rounded=0;" vertex="1" parent="1">
          <mxGeometry x="305" y="560" width="160" height="30" as="geometry" />
        </mxCell>
        <mxCell id="4L4OfkhO6QXv4VQEbrI_-26" value="mode = MODE1" style="text;html=1;align=center;verticalAlign=middle;whiteSpace=wrap;rounded=0;rotation=327;" vertex="1" parent="1">
          <mxGeometry x="200" y="490" width="90" height="30" as="geometry" />
        </mxCell>
        <mxCell id="4L4OfkhO6QXv4VQEbrI_-32" value="isButtonPress(int index" style="rhombus;whiteSpace=wrap;html=1;" vertex="1" parent="1">
          <mxGeometry x="40" y="50" width="120" height="110" as="geometry" />
        </mxCell>
        <mxCell id="4L4OfkhO6QXv4VQEbrI_-33" value="" style="endArrow=classic;html=1;rounded=0;exitX=0.5;exitY=0;exitDx=0;exitDy=0;" edge="1" parent="1" source="4L4OfkhO6QXv4VQEbrI_-32">
          <mxGeometry width="50" height="50" relative="1" as="geometry">
            <mxPoint x="480" y="300" as="sourcePoint" />
            <mxPoint x="100" y="-40" as="targetPoint" />
          </mxGeometry>
        </mxCell>
        <mxCell id="4L4OfkhO6QXv4VQEbrI_-34" value="index == 0" style="text;html=1;align=center;verticalAlign=middle;whiteSpace=wrap;rounded=0;direction=east;rotation=270;" vertex="1" parent="1">
          <mxGeometry x="50" width="85" height="30" as="geometry" />
        </mxCell>
        <mxCell id="4L4OfkhO6QXv4VQEbrI_-35" value="Button1_Pressed" style="ellipse;whiteSpace=wrap;html=1;" vertex="1" parent="1">
          <mxGeometry x="40" y="-120" width="120" height="80" as="geometry" />
        </mxCell>
        <mxCell id="4L4OfkhO6QXv4VQEbrI_-37" value="" style="endArrow=classic;html=1;rounded=0;exitX=1;exitY=0.5;exitDx=0;exitDy=0;" edge="1" parent="1" source="4L4OfkhO6QXv4VQEbrI_-32">
          <mxGeometry width="50" height="50" relative="1" as="geometry">
            <mxPoint x="480" y="90" as="sourcePoint" />
            <mxPoint x="260" y="105" as="targetPoint" />
          </mxGeometry>
        </mxCell>
        <mxCell id="4L4OfkhO6QXv4VQEbrI_-38" value="index == 1" style="text;html=1;align=center;verticalAlign=middle;whiteSpace=wrap;rounded=0;" vertex="1" parent="1">
          <mxGeometry x="180" y="80" width="60" height="30" as="geometry" />
        </mxCell>
        <mxCell id="4L4OfkhO6QXv4VQEbrI_-39" value="Button2_Pressed" style="ellipse;whiteSpace=wrap;html=1;" vertex="1" parent="1">
          <mxGeometry x="260" y="65" width="120" height="80" as="geometry" />
        </mxCell>
        <mxCell id="4L4OfkhO6QXv4VQEbrI_-40" value="" style="endArrow=classic;html=1;rounded=0;exitX=0.5;exitY=1;exitDx=0;exitDy=0;entryX=0.5;entryY=0;entryDx=0;entryDy=0;" edge="1" parent="1" source="4L4OfkhO6QXv4VQEbrI_-32" target="4L4OfkhO6QXv4VQEbrI_-43">
          <mxGeometry width="50" height="50" relative="1" as="geometry">
            <mxPoint x="480" y="90" as="sourcePoint" />
            <mxPoint x="100" y="240" as="targetPoint" />
          </mxGeometry>
        </mxCell>
        <mxCell id="4L4OfkhO6QXv4VQEbrI_-41" value="index == 2" style="text;html=1;align=center;verticalAlign=middle;whiteSpace=wrap;rounded=0;rotation=270;" vertex="1" parent="1">
          <mxGeometry x="62.5" y="190" width="60" height="30" as="geometry" />
        </mxCell>
        <mxCell id="4L4OfkhO6QXv4VQEbrI_-43" value="Button3_Pressed" style="ellipse;whiteSpace=wrap;html=1;" vertex="1" parent="1">
          <mxGeometry x="40" y="260" width="120" height="80" as="geometry" />
        </mxCell>
        <mxCell id="4L4OfkhO6QXv4VQEbrI_-44" value="" style="endArrow=classic;html=1;rounded=0;exitX=1;exitY=0.5;exitDx=0;exitDy=0;entryX=0;entryY=0.5;entryDx=0;entryDy=0;" edge="1" parent="1" source="4L4OfkhO6QXv4VQEbrI_-8" target="4L4OfkhO6QXv4VQEbrI_-47">
          <mxGeometry width="50" height="50" relative="1" as="geometry">
            <mxPoint x="480" y="290" as="sourcePoint" />
            <mxPoint x="580" y="440" as="targetPoint" />
          </mxGeometry>
        </mxCell>
        <mxCell id="4L4OfkhO6QXv4VQEbrI_-45" value="isButtonPressed(0)" style="text;html=1;align=center;verticalAlign=middle;whiteSpace=wrap;rounded=0;" vertex="1" parent="1">
          <mxGeometry x="550" y="410" width="80" height="30" as="geometry" />
        </mxCell>
        <mxCell id="4L4OfkhO6QXv4VQEbrI_-46" value="button_flag[0] = 1" style="text;html=1;align=center;verticalAlign=middle;whiteSpace=wrap;rounded=0;" vertex="1" parent="1">
          <mxGeometry x="540" y="440" width="100" height="30" as="geometry" />
        </mxCell>
        <mxCell id="4L4OfkhO6QXv4VQEbrI_-47" value="&lt;font style=&quot;font-size: 21px;&quot;&gt;MODE2&lt;/font&gt;" style="whiteSpace=wrap;html=1;aspect=fixed;" vertex="1" parent="1">
          <mxGeometry x="680" y="400" width="80" height="80" as="geometry" />
        </mxCell>
        <mxCell id="4L4OfkhO6QXv4VQEbrI_-49" value="&amp;nbsp;segRun2" style="text;html=1;align=center;verticalAlign=middle;whiteSpace=wrap;rounded=0;" vertex="1" parent="1">
          <mxGeometry x="350" y="370" width="60" height="30" as="geometry" />
        </mxCell>
        <mxCell id="4L4OfkhO6QXv4VQEbrI_-50" value="ledValueData--&lt;div&gt;ledModeData--&lt;/div&gt;" style="text;html=1;align=center;verticalAlign=middle;whiteSpace=wrap;rounded=0;" vertex="1" parent="1">
          <mxGeometry x="340" y="480" width="90" height="30" as="geometry" />
        </mxCell>
        <mxCell id="4L4OfkhO6QXv4VQEbrI_-53" value="" style="curved=1;endArrow=classic;html=1;rounded=0;exitX=1;exitY=0;exitDx=0;exitDy=0;entryX=1;entryY=0.5;entryDx=0;entryDy=0;" edge="1" parent="1" source="4L4OfkhO6QXv4VQEbrI_-47" target="4L4OfkhO6QXv4VQEbrI_-54">
          <mxGeometry width="50" height="50" relative="1" as="geometry">
            <mxPoint x="580" y="380" as="sourcePoint" />
            <mxPoint x="750" y="280" as="targetPoint" />
            <Array as="points">
              <mxPoint x="790" y="390" />
              <mxPoint x="800" y="360" />
              <mxPoint x="810" y="320" />
              <mxPoint x="790" y="290" />
              <mxPoint x="780" y="280" />
            </Array>
          </mxGeometry>
        </mxCell>
        <mxCell id="4L4OfkhO6QXv4VQEbrI_-54" value="&lt;span style=&quot;font-size: 11px;&quot;&gt;ledValueData = temp&lt;/span&gt;" style="whiteSpace=wrap;html=1;aspect=fixed;" vertex="1" parent="1">
          <mxGeometry x="680" y="245" width="75" height="75" as="geometry" />
        </mxCell>
        <mxCell id="4L4OfkhO6QXv4VQEbrI_-55" value="isButtonPressed(1)" style="text;html=1;align=center;verticalAlign=middle;whiteSpace=wrap;rounded=0;rotation=90;" vertex="1" parent="1">
          <mxGeometry x="790" y="325" width="60" height="30" as="geometry" />
        </mxCell>
        <mxCell id="4L4OfkhO6QXv4VQEbrI_-56" value="mode = MODE2" style="text;html=1;align=center;verticalAlign=middle;whiteSpace=wrap;rounded=0;" vertex="1" parent="1">
          <mxGeometry x="675" y="370" width="90" height="30" as="geometry" />
        </mxCell>
        <mxCell id="4L4OfkhO6QXv4VQEbrI_-57" value="" style="curved=1;endArrow=classic;html=1;rounded=0;entryX=0;entryY=0;entryDx=0;entryDy=0;exitX=0;exitY=0.5;exitDx=0;exitDy=0;" edge="1" parent="1" source="4L4OfkhO6QXv4VQEbrI_-54" target="4L4OfkhO6QXv4VQEbrI_-47">
          <mxGeometry width="50" height="50" relative="1" as="geometry">
            <mxPoint x="590" y="280" as="sourcePoint" />
            <mxPoint x="630" y="330" as="targetPoint" />
            <Array as="points">
              <mxPoint x="630" y="300" />
              <mxPoint x="640" y="360" />
            </Array>
          </mxGeometry>
        </mxCell>
        <mxCell id="4L4OfkhO6QXv4VQEbrI_-59" value="" style="curved=1;endArrow=classic;html=1;rounded=0;entryX=1;entryY=0.5;entryDx=0;entryDy=0;" edge="1" parent="1" target="4L4OfkhO6QXv4VQEbrI_-60">
          <mxGeometry width="50" height="50" relative="1" as="geometry">
            <mxPoint x="760" y="480" as="sourcePoint" />
            <mxPoint x="760" y="560" as="targetPoint" />
            <Array as="points">
              <mxPoint x="775" y="510" />
              <mxPoint x="780" y="560" />
            </Array>
          </mxGeometry>
        </mxCell>
        <mxCell id="4L4OfkhO6QXv4VQEbrI_-60" value="redTime = temp&lt;div&gt;ledValueData = redTime&lt;/div&gt;" style="whiteSpace=wrap;html=1;aspect=fixed;" vertex="1" parent="1">
          <mxGeometry x="665" y="560" width="90" height="90" as="geometry" />
        </mxCell>
        <mxCell id="4L4OfkhO6QXv4VQEbrI_-61" value="" style="curved=1;endArrow=classic;html=1;rounded=0;exitX=0;exitY=0.5;exitDx=0;exitDy=0;entryX=0;entryY=1;entryDx=0;entryDy=0;" edge="1" parent="1" source="4L4OfkhO6QXv4VQEbrI_-60" target="4L4OfkhO6QXv4VQEbrI_-47">
          <mxGeometry width="50" height="50" relative="1" as="geometry">
            <mxPoint x="600" y="550" as="sourcePoint" />
            <mxPoint x="650" y="500" as="targetPoint" />
            <Array as="points">
              <mxPoint x="600" y="500" />
            </Array>
          </mxGeometry>
        </mxCell>
        <mxCell id="4L4OfkhO6QXv4VQEbrI_-62" value="" style="endArrow=classic;html=1;rounded=0;exitX=1;exitY=0.5;exitDx=0;exitDy=0;entryX=0;entryY=0.5;entryDx=0;entryDy=0;" edge="1" parent="1" source="4L4OfkhO6QXv4VQEbrI_-47" target="4L4OfkhO6QXv4VQEbrI_-84">
          <mxGeometry width="50" height="50" relative="1" as="geometry">
            <mxPoint x="820" y="450" as="sourcePoint" />
            <mxPoint x="900" y="440" as="targetPoint" />
          </mxGeometry>
        </mxCell>
        <mxCell id="4L4OfkhO6QXv4VQEbrI_-63" value="isButtonPressed(0)" style="text;html=1;align=center;verticalAlign=middle;whiteSpace=wrap;rounded=0;" vertex="1" parent="1">
          <mxGeometry x="790" y="410" width="110" height="30" as="geometry" />
        </mxCell>
        <mxCell id="4L4OfkhO6QXv4VQEbrI_-64" value="isButtonPressed(2)" style="text;html=1;align=center;verticalAlign=middle;whiteSpace=wrap;rounded=0;rotation=90;" vertex="1" parent="1">
          <mxGeometry x="740" y="530" width="100" height="30" as="geometry" />
        </mxCell>
        <mxCell id="4L4OfkhO6QXv4VQEbrI_-65" value="button_flag[1] = 1" style="text;html=1;align=center;verticalAlign=middle;whiteSpace=wrap;rounded=0;rotation=270;" vertex="1" parent="1">
          <mxGeometry x="730" y="320" width="100" height="30" as="geometry" />
        </mxCell>
        <mxCell id="4L4OfkhO6QXv4VQEbrI_-66" value="button_flag[2] = 2" style="text;html=1;align=center;verticalAlign=middle;whiteSpace=wrap;rounded=0;rotation=90;" vertex="1" parent="1">
          <mxGeometry x="710" y="520" width="110" height="30" as="geometry" />
        </mxCell>
        <mxCell id="4L4OfkhO6QXv4VQEbrI_-68" value="button_flag[0] = 1" style="text;html=1;align=center;verticalAlign=middle;whiteSpace=wrap;rounded=0;" vertex="1" parent="1">
          <mxGeometry x="790" y="440" width="110" height="30" as="geometry" />
        </mxCell>
        <mxCell id="4L4OfkhO6QXv4VQEbrI_-71" value="offAllLeds()&lt;div&gt;blinkingRED()&lt;/div&gt;" style="text;html=1;align=center;verticalAlign=middle;whiteSpace=wrap;rounded=0;" vertex="1" parent="1">
          <mxGeometry x="672.5" y="480" width="90" height="30" as="geometry" />
        </mxCell>
        <mxCell id="4L4OfkhO6QXv4VQEbrI_-84" value="&lt;font style=&quot;font-size: 21px;&quot;&gt;MODE3&lt;/font&gt;" style="whiteSpace=wrap;html=1;aspect=fixed;" vertex="1" parent="1">
          <mxGeometry x="905" y="400" width="80" height="80" as="geometry" />
        </mxCell>
        <mxCell id="4L4OfkhO6QXv4VQEbrI_-85" value="" style="curved=1;endArrow=classic;html=1;rounded=0;exitX=1;exitY=0;exitDx=0;exitDy=0;entryX=1;entryY=0.5;entryDx=0;entryDy=0;" edge="1" parent="1" source="4L4OfkhO6QXv4VQEbrI_-84" target="4L4OfkhO6QXv4VQEbrI_-86">
          <mxGeometry width="50" height="50" relative="1" as="geometry">
            <mxPoint x="805" y="380" as="sourcePoint" />
            <mxPoint x="975" y="280" as="targetPoint" />
            <Array as="points">
              <mxPoint x="1015" y="390" />
              <mxPoint x="1025" y="360" />
              <mxPoint x="1035" y="320" />
              <mxPoint x="1015" y="290" />
              <mxPoint x="1005" y="280" />
            </Array>
          </mxGeometry>
        </mxCell>
        <mxCell id="4L4OfkhO6QXv4VQEbrI_-86" value="&lt;span style=&quot;font-size: 11px;&quot;&gt;ledValueData = temp&lt;/span&gt;" style="whiteSpace=wrap;html=1;aspect=fixed;" vertex="1" parent="1">
          <mxGeometry x="905" y="245" width="75" height="75" as="geometry" />
        </mxCell>
        <mxCell id="4L4OfkhO6QXv4VQEbrI_-87" value="isButtonPressed(1)" style="text;html=1;align=center;verticalAlign=middle;whiteSpace=wrap;rounded=0;rotation=90;" vertex="1" parent="1">
          <mxGeometry x="1010" y="317.5" width="60" height="30" as="geometry" />
        </mxCell>
        <mxCell id="4L4OfkhO6QXv4VQEbrI_-88" value="mode = MODE3" style="text;html=1;align=center;verticalAlign=middle;whiteSpace=wrap;rounded=0;" vertex="1" parent="1">
          <mxGeometry x="900" y="370" width="90" height="30" as="geometry" />
        </mxCell>
        <mxCell id="4L4OfkhO6QXv4VQEbrI_-89" value="" style="curved=1;endArrow=classic;html=1;rounded=0;entryX=0;entryY=0;entryDx=0;entryDy=0;exitX=0;exitY=0.5;exitDx=0;exitDy=0;" edge="1" parent="1" source="4L4OfkhO6QXv4VQEbrI_-86" target="4L4OfkhO6QXv4VQEbrI_-84">
          <mxGeometry width="50" height="50" relative="1" as="geometry">
            <mxPoint x="810" y="272.5" as="sourcePoint" />
            <mxPoint x="850" y="322.5" as="targetPoint" />
            <Array as="points">
              <mxPoint x="870" y="300" />
              <mxPoint x="870" y="370" />
            </Array>
          </mxGeometry>
        </mxCell>
        <mxCell id="4L4OfkhO6QXv4VQEbrI_-90" value="" style="curved=1;endArrow=classic;html=1;rounded=0;entryX=1;entryY=0.5;entryDx=0;entryDy=0;" edge="1" parent="1" target="4L4OfkhO6QXv4VQEbrI_-91">
          <mxGeometry width="50" height="50" relative="1" as="geometry">
            <mxPoint x="985" y="480" as="sourcePoint" />
            <mxPoint x="985" y="560" as="targetPoint" />
            <Array as="points">
              <mxPoint x="1000" y="510" />
              <mxPoint x="1005" y="560" />
            </Array>
          </mxGeometry>
        </mxCell>
        <mxCell id="4L4OfkhO6QXv4VQEbrI_-91" value="yellowTime = temp&lt;div&gt;ledValueData = yellowTime&lt;/div&gt;" style="whiteSpace=wrap;html=1;aspect=fixed;" vertex="1" parent="1">
          <mxGeometry x="890" y="560" width="90" height="90" as="geometry" />
        </mxCell>
        <mxCell id="4L4OfkhO6QXv4VQEbrI_-92" value="isButtonPressed(2)" style="text;html=1;align=center;verticalAlign=middle;whiteSpace=wrap;rounded=0;rotation=90;" vertex="1" parent="1">
          <mxGeometry x="965" y="530" width="100" height="30" as="geometry" />
        </mxCell>
        <mxCell id="4L4OfkhO6QXv4VQEbrI_-93" value="button_flag[1] = 1" style="text;html=1;align=center;verticalAlign=middle;whiteSpace=wrap;rounded=0;rotation=270;" vertex="1" parent="1">
          <mxGeometry x="955" y="320" width="100" height="30" as="geometry" />
        </mxCell>
        <mxCell id="4L4OfkhO6QXv4VQEbrI_-94" value="button_flag[2] = 2" style="text;html=1;align=center;verticalAlign=middle;whiteSpace=wrap;rounded=0;rotation=90;" vertex="1" parent="1">
          <mxGeometry x="935" y="520" width="110" height="30" as="geometry" />
        </mxCell>
        <mxCell id="4L4OfkhO6QXv4VQEbrI_-95" value="offAllLeds()&lt;div&gt;blinkingYELLOW()&lt;/div&gt;" style="text;html=1;align=center;verticalAlign=middle;whiteSpace=wrap;rounded=0;" vertex="1" parent="1">
          <mxGeometry x="890" y="480" width="90" height="30" as="geometry" />
        </mxCell>
        <mxCell id="4L4OfkhO6QXv4VQEbrI_-96" value="" style="curved=1;endArrow=classic;html=1;rounded=0;exitX=0;exitY=0.5;exitDx=0;exitDy=0;entryX=0;entryY=1;entryDx=0;entryDy=0;" edge="1" parent="1">
          <mxGeometry width="50" height="50" relative="1" as="geometry">
            <mxPoint x="890" y="605" as="sourcePoint" />
            <mxPoint x="905" y="480" as="targetPoint" />
            <Array as="points">
              <mxPoint x="825" y="500" />
            </Array>
          </mxGeometry>
        </mxCell>
        <mxCell id="4L4OfkhO6QXv4VQEbrI_-97" value="&lt;font style=&quot;font-size: 21px;&quot;&gt;MODE4&lt;/font&gt;" style="whiteSpace=wrap;html=1;aspect=fixed;" vertex="1" parent="1">
          <mxGeometry x="1135" y="400" width="80" height="80" as="geometry" />
        </mxCell>
        <mxCell id="4L4OfkhO6QXv4VQEbrI_-98" value="" style="curved=1;endArrow=classic;html=1;rounded=0;exitX=1;exitY=0;exitDx=0;exitDy=0;entryX=1;entryY=0.5;entryDx=0;entryDy=0;" edge="1" parent="1" source="4L4OfkhO6QXv4VQEbrI_-97" target="4L4OfkhO6QXv4VQEbrI_-99">
          <mxGeometry width="50" height="50" relative="1" as="geometry">
            <mxPoint x="1035" y="380" as="sourcePoint" />
            <mxPoint x="1205" y="280" as="targetPoint" />
            <Array as="points">
              <mxPoint x="1245" y="390" />
              <mxPoint x="1255" y="360" />
              <mxPoint x="1265" y="320" />
              <mxPoint x="1245" y="290" />
              <mxPoint x="1235" y="280" />
            </Array>
          </mxGeometry>
        </mxCell>
        <mxCell id="4L4OfkhO6QXv4VQEbrI_-99" value="&lt;span style=&quot;font-size: 11px;&quot;&gt;ledValueData = temp&lt;/span&gt;" style="whiteSpace=wrap;html=1;aspect=fixed;" vertex="1" parent="1">
          <mxGeometry x="1135" y="245" width="75" height="75" as="geometry" />
        </mxCell>
        <mxCell id="4L4OfkhO6QXv4VQEbrI_-100" value="mode = MODE4" style="text;html=1;align=center;verticalAlign=middle;whiteSpace=wrap;rounded=0;" vertex="1" parent="1">
          <mxGeometry x="1130" y="370" width="90" height="30" as="geometry" />
        </mxCell>
        <mxCell id="4L4OfkhO6QXv4VQEbrI_-101" value="" style="curved=1;endArrow=classic;html=1;rounded=0;entryX=0;entryY=0;entryDx=0;entryDy=0;exitX=0;exitY=0.5;exitDx=0;exitDy=0;" edge="1" parent="1" source="4L4OfkhO6QXv4VQEbrI_-99" target="4L4OfkhO6QXv4VQEbrI_-97">
          <mxGeometry width="50" height="50" relative="1" as="geometry">
            <mxPoint x="1045" y="280" as="sourcePoint" />
            <mxPoint x="1085" y="330" as="targetPoint" />
            <Array as="points">
              <mxPoint x="1090" y="310" />
              <mxPoint x="1110" y="370" />
            </Array>
          </mxGeometry>
        </mxCell>
        <mxCell id="4L4OfkhO6QXv4VQEbrI_-102" value="" style="curved=1;endArrow=classic;html=1;rounded=0;entryX=1;entryY=0.5;entryDx=0;entryDy=0;" edge="1" parent="1" target="4L4OfkhO6QXv4VQEbrI_-103">
          <mxGeometry width="50" height="50" relative="1" as="geometry">
            <mxPoint x="1215" y="480" as="sourcePoint" />
            <mxPoint x="1215" y="560" as="targetPoint" />
            <Array as="points">
              <mxPoint x="1230" y="510" />
              <mxPoint x="1235" y="560" />
            </Array>
          </mxGeometry>
        </mxCell>
        <mxCell id="4L4OfkhO6QXv4VQEbrI_-103" value="greenTime= temp&lt;div&gt;ledValueData = greenTime&lt;/div&gt;" style="whiteSpace=wrap;html=1;aspect=fixed;" vertex="1" parent="1">
          <mxGeometry x="1120" y="560" width="90" height="90" as="geometry" />
        </mxCell>
        <mxCell id="4L4OfkhO6QXv4VQEbrI_-104" value="" style="curved=1;endArrow=classic;html=1;rounded=0;exitX=0;exitY=0.5;exitDx=0;exitDy=0;entryX=0;entryY=1;entryDx=0;entryDy=0;" edge="1" parent="1" source="4L4OfkhO6QXv4VQEbrI_-103" target="4L4OfkhO6QXv4VQEbrI_-97">
          <mxGeometry width="50" height="50" relative="1" as="geometry">
            <mxPoint x="1055" y="550" as="sourcePoint" />
            <mxPoint x="1105" y="500" as="targetPoint" />
            <Array as="points">
              <mxPoint x="1055" y="500" />
            </Array>
          </mxGeometry>
        </mxCell>
        <mxCell id="4L4OfkhO6QXv4VQEbrI_-105" value="isButtonPressed(2)" style="text;html=1;align=center;verticalAlign=middle;whiteSpace=wrap;rounded=0;rotation=90;" vertex="1" parent="1">
          <mxGeometry x="1195" y="530" width="100" height="30" as="geometry" />
        </mxCell>
        <mxCell id="4L4OfkhO6QXv4VQEbrI_-106" value="button_flag[1] = 1" style="text;html=1;align=center;verticalAlign=middle;whiteSpace=wrap;rounded=0;rotation=270;" vertex="1" parent="1">
          <mxGeometry x="1185" y="320" width="100" height="30" as="geometry" />
        </mxCell>
        <mxCell id="4L4OfkhO6QXv4VQEbrI_-107" value="button_flag[2] = 2" style="text;html=1;align=center;verticalAlign=middle;whiteSpace=wrap;rounded=0;rotation=90;" vertex="1" parent="1">
          <mxGeometry x="1165" y="520" width="110" height="30" as="geometry" />
        </mxCell>
        <mxCell id="4L4OfkhO6QXv4VQEbrI_-108" value="offAllLeds()&lt;div&gt;blinkingGREEN()&lt;/div&gt;" style="text;html=1;align=center;verticalAlign=middle;whiteSpace=wrap;rounded=0;" vertex="1" parent="1">
          <mxGeometry x="1120" y="480" width="90" height="30" as="geometry" />
        </mxCell>
        <mxCell id="4L4OfkhO6QXv4VQEbrI_-110" value="" style="endArrow=classic;html=1;rounded=0;exitX=1;exitY=0.5;exitDx=0;exitDy=0;entryX=0;entryY=0.5;entryDx=0;entryDy=0;" edge="1" parent="1" source="4L4OfkhO6QXv4VQEbrI_-84" target="4L4OfkhO6QXv4VQEbrI_-97">
          <mxGeometry width="50" height="50" relative="1" as="geometry">
            <mxPoint x="970" y="450" as="sourcePoint" />
            <mxPoint x="1020" y="400" as="targetPoint" />
          </mxGeometry>
        </mxCell>
        <mxCell id="4L4OfkhO6QXv4VQEbrI_-111" value="isButtonPressed(1)" style="text;html=1;align=center;verticalAlign=middle;whiteSpace=wrap;rounded=0;rotation=90;" vertex="1" parent="1">
          <mxGeometry x="1220" y="320" width="110" height="30" as="geometry" />
        </mxCell>
        <mxCell id="4L4OfkhO6QXv4VQEbrI_-112" value="" style="curved=1;endArrow=classic;html=1;rounded=0;exitX=1;exitY=0.5;exitDx=0;exitDy=0;" edge="1" parent="1" source="4L4OfkhO6QXv4VQEbrI_-97">
          <mxGeometry width="50" height="50" relative="1" as="geometry">
            <mxPoint x="1216" y="480" as="sourcePoint" />
            <mxPoint x="420" y="440" as="targetPoint" />
            <Array as="points">
              <mxPoint x="1360" y="510" />
              <mxPoint x="1320" y="710" />
              <mxPoint x="740" y="720" />
              <mxPoint x="600" y="670" />
            </Array>
          </mxGeometry>
        </mxCell>
      </root>
    </mxGraphModel>
  </diagram>
</mxfile>
